<?xml version="1.0" encoding="UTF-8"?>
<svg id="a" data-name="Layer 1" xmlns="http://www.w3.org/2000/svg" width="253.001239" height="258.290039" viewBox="0 0 253.001239 258.290039">
  <path d="M211.159701,58.177669c5.182154-2.682978,9.41558-5.316938,12.672481-7.510758,14.02002-9.430054,20.26001-17.660034,23.559998-23.820007,1.27002-2.360046,2.540039-8.27002,2.720032-11.400024.059998-.950012-1.109985-1.429993-1.730042-.710022-3.049988,3.51001-6.47998,7.119995-10.339966,10.720032-7.01001,6.539978-17.440002,13.599976-25.160034,18.48999-9.366073,5.923588-19.520817,10.519943-30.219041,13.392557l-.898178,1.149615c-.037912,4.516909-.349648,24.60336-12.692779,37.317814-4.521512,4.670875-9.429877,7.506844-13.371561,9.258506l-.098976.03857c-2.478058.829867-7.499031,2.056988-11.829451-.277056-4.546458-2.456441-7.472059-8.370976-7.426995-15.584485.030532-4.887386,1.892319-9.51529,4.629549-13.564369,1.355479-2.005109,2.147483-4.419706,2.147483-7.021129,0,0,.300485-1.72767.852308-2.409396l10.717638-13.240629-2.169983.369995c-2.570007.440002-4.969971,1.600037-6.919983,3.340027l-2.727667,2.452813c-.861855.77501-2.444018,1.77592-3.527704,2.187086-3.419213,1.297299.879769-2.573285,1.553223-3.114813l1.262146-1.015076c3.429993-2.76001,7.559998-4.530029,11.929993-5.110046l2.030029-.279968c-5.320007-2.160034-11.290039-2.070007-16.540039.23999l-8.93736,3.930749-.426642.093708c-3.699403.103845-7.001213,1.808602-9.245983,4.445514-.73999.870056-1.359985,1.860046-1.849976,2.910034,0-.000122-.000061-.000305-.000183-.000366-.020447-.011047-1.281677,3.078796-3.162476,5.148865-.49176.54126-1.720276,1.322021-4.157349,2.861511-2.783569,1.758362-5.21051,2.77417-6.110046,5.070007-.151532.386716-.253422.775525-.31615,1.159795-.185158,1.134288,1.228389,1.833152,2.0356,1.015042.077602-.07865.154566-.153548.230562-.224886.000061-.000061.323486-.273773.849731-.379761,3.612988-.727613,6.134926-.871782,7.867988-.776268,2.732399.15059,4.803836,2.510683,4.648048,5.242791-.410821,7.204691-7.191029,19.724532-14.665755,22.253265-6.674133,2.257904-11.820923.279846-11.821045.279816-.04071-.0159-.076965-.029999-.117676-.045868-3.940063-1.752136-8.84375-4.587219-13.361267-9.253967-12.34313-12.714453-12.654867-32.800904-12.692779-37.317814l-.898178-1.149615c-10.698224-2.872614-20.852968-7.468969-30.219041-13.392557-7.720032-4.890015-18.150024-11.950012-25.160034-18.48999-3.859985-3.600037-7.289978-7.210022-10.339966-10.720032-.619995-.719971-1.790039-.23999-1.72998.710022.179993,3.130005,1.449951,9.039978,2.719971,11.400024,3.299988,6.159973,9.539978,14.389954,23.559998,23.820007,3.257391,2.194127,7.491615,4.828546,12.674753,7.511892,1.211357.627128.600596,2.469541-.74232,2.230272-6.181859-1.10143-13.821007-2.618021-17.622435-4.422217-4.929993-2.339966-9.419983-3.649963-13.5-5.829956-.690002-.369995-1.469971.329956-1.150024,1.049988,1.130005,2.630005,3,5.409973,6.150024,8.940002,5.539978,6.200012,12.090027,8.47998,18.280029,10.549988,1.529415.510816,2.887817.95207,4.10779,1.33718,1.299817.410314,1.001313,2.328683-.361725,2.326054-3.039648-.005863-6.802027-.254372-11.926118-.833217-5.949951-.670044-11.47998-.450012-16.569946-1.290039-.780029-.130005-1.280029.790039-.75,1.369995,2.159973,2.340027,5.329956,4.560059,9.809998,7.110046,7.72998,4.380005,15.269958,4.419983,22.349976,4.369995,3.970337-.028383,8.648504-.568226,12.016257-.771158,1.321341-.079621,1.76528,1.72621.562092,2.278134-4.707892,2.159593-10.149075,4.467924-20.228374,5.043012-5.329956.309998-10.339966,1.440002-15,1.539978-.789978.02002-1.129944,1.030029-.47998,1.490051,2.340027,1.649963,5.600037,3.009949,9.859985,4.549988,7.590027,2.73999,14.340027,1.619995,20.670044.48999,6.849976-1.220032,10.25-2.049988,13.079956-2.809998l.330017.709961c-5.890015,3.910034-7.710022,5.790039-20.109985,9.060059-4.5,1.189941-8.799988,3.159973-12.840027,4.139954-.789978.200012-.839966,1.299988-.070007,1.580017,2.380005.880005,5.52002,1.359985,9.350037,1.919983,7.130005,1.049988,12.839966-1.139954,18.179993-3.26001,3.132471-1.242621,7.91107-2.97116,11.478609-4.318095,1.160829-.438274,2.132577.966177,1.315682,1.900143-3.847055,4.398378-10.958137,11.612646-18.604288,14.797957-3.48999,1.450012-6.869995,3.650024-10.070007,5.02002-.76001.320007-.619995,1.450012.190002,1.570007,2.090027.299988,4.719971.219971,7.76001.25,6.130005.059998,10.690002-2.440002,14.940002-4.840027,5.414202-3.05942,7.553751-4.520146,9.605945-5.959968.305494-.214335.693971-.27247,1.049258-.158289l.834787.268281c-4.179993,5.950012-4.369995,7.779968-13.789978,14.890015-1.789085,1.344745-3.557141,2.942226-5.293774,4.463865-1.589373,1.39261-.240916,3.983615,1.810377,3.476003,1.003263-.248267,2.051745-.520403,3.13336-.789905,5.950012-1.469971,11.106445-2.906616,14.626465-6.296631,4.117099-3.961317,8.275834-10.395338,11.431879-13.266188.866422-.788128,2.220507.03655,1.948261,1.175723-1.121462,4.692602-1.993369,9.687835-5.849206,15.910947-.049919.080566-.033293.187524.041289.246007l5.531415,4.337442.000061-.000061c1.745801-2.126764,39.840277-25.500307,41.833255-26.722411l.163948.00121c1.901355,1.167713,35.883087,22.047079,36.816106,23.303122l.026538.025619,4.650693,3.321903.20373.009217,4.219865-2.471521c.093444-.054729.118357-.179013.056989-.268237-4.852419-7.055043-5.788275-12.543561-7.011896-17.66834-.283079-1.185595,1.163932-1.974065,2.017794-1.104187,3.093462,3.15149,6.753967,11.667956,10.83621,15.59572,3.52002,3.390015,9.196594,2.400696,15.146606,3.870667,1.080971.26931,2.128811.541315,3.131006.789392,2.051834.507897,3.400715-2.084004,1.810923-3.477037-1.736053-1.521192-3.503465-3.118057-5.291905-4.462318-9.420044-7.110046-9.610046-8.940002-13.790039-14.890015l.825083-.26706c.355191-.114967.743929-.057493,1.049935.156372,2.060495,1.440063,4.199922,2.90076,9.615033,5.960664,4.25,2.400024,8.809998,4.900024,14.929993,4.840027,3.049988-.030029,5.679993.049988,7.759949-.25.820007-.119995.960022-1.25.200012-1.570007-3.200012-1.369995-6.579956-3.570007-10.070007-5.02002-7.646129-3.185327-14.757305-10.399651-18.604346-14.797992-.816914-.933982.154975-2.338413,1.315825-1.900123,3.567482,1.346938,8.346042,3.075484,11.478523,4.31811,5.340027,2.120056,11.050049,4.309998,18.179993,3.26001,3.830017-.559998,6.970032-1.039978,9.350037-1.919983.77002-.280029.719971-1.380005-.070007-1.580017-4.039978-.97998-8.340027-2.950012-12.840027-4.139954-12.399963-3.27002-14.219971-5.150024-20.109985-9.060059l.330017-.709961c2.830017.76001,6.22998,1.589966,13.080017,2.809998,6.329956,1.130005,13.079956,2.25,20.669983-.48999,4.26001-1.540039,7.52002-2.900024,9.859985-4.549988.650024-.460022.309998-1.470032-.47998-1.490051-4.660034-.099976-9.669983-1.22998-15-1.539978-10.079312-.575119-15.520496-2.883425-20.233132-5.042983-1.203638-.551565-.75989-2.357897.561717-2.27838,3.369837.202752,8.049712.742992,12.021391.771375,7.080017.049988,14.619995.01001,22.350037-4.369995,4.47998-2.549988,7.649963-4.77002,9.799988-7.110046.539978-.579956.039978-1.5-.73999-1.369995-5.090027.840027-10.619995.619995-16.570007,1.290039-5.124093.578845-8.886472.827354-11.926059.833217-1.363037.002629-1.661535-1.915742-.36172-2.326055,1.219972-.385109,2.578373-.826363,4.107786-1.337179,6.190002-2.070007,12.73999-4.349976,18.279968-10.549988,3.150024-3.530029,5.02002-6.309998,6.150024-8.940002.320007-.720032-.460022-1.419983-1.160034-1.049988-4.070007,2.179993-8.559998,3.48999-13.48999,5.829956-3.800147,1.803585-11.43875,3.319689-17.620185,4.421089-1.342909.239278-1.953637-1.603126-.742299-2.230278ZM127.607299,62.705974c-.84438.293-1.427392-.150153-1.185093-1.010455.251789-.893996,1.19436-1.498601,2.215175-1.201194.770971.224616,1.27077,1.011971,1.224743,1.813675-.056345.981424-.780359-.113666-2.254826.397974Z" fill="#fff"/>
  <polygon points="86.674363 180.172101 86.674363 150.020476 126.963171 125.587263 166.038984 148.80748 166.038984 180.691956 159.280861 185.024086 159.367502 164.056577 95.425264 164.056577 95.338623 185.024086 86.674363 180.172101" fill="#e5723a"/>
  <path d="M160.407194,247.089152s-12.823084-6.931389-6.758118-20.794189c3.626838-8.289927,15.829712-16.534546,18.10614-17.771851,1.919678-1.043396,5.543091-3.073914,8.280701-7.170776.955994-1.430664,1.650391-3.219055,2.118591-5.815491-.204407-2.36853-.271973-5.014282-.08667-7.884521.390291-6.044825,1.780942-11.20847,3.312949-15.280267.742666-1.973871.886577-4.118862.360298-6.161103-1.230834-4.776288-2.502171-9.589097-3.846526-14.428624-.577637-2.079407-1.155212-4.158875-1.732849-6.238281-.329224-.011475-1.960632-.034119-3.292419,1.213013-1.669922,1.563782-2.039448,4.062091-1.819477,7.62453.205334,3.325445.768234,8.823894,1.45415,12.213777.379571,1.875886.297511,3.815079-.28388,5.63854-.93883,2.944527-1.877661,5.889069-2.816491,8.833578-.182922.507629-.576477,1.543945-1.213013,2.772583-7.744995,14.949402-27.698242,12.509216-37.429565,27.205811-.010209.015417-.020472.030954-.03079.046609-3.170333,4.810482-3.996513,10.819603-2.261009,16.313216.721428,2.283628,1.823236,4.760669,3.504812,7.206948,8.164062,11.87677,22.714294,12.438354,24.433167,12.476501Z" fill="#fff"/>
  <path d="M117.779081,178.294963h5.198547c-.118347,1.836792,1.286865,3.37677,2.945862,3.465698,1.774963.095154,3.410278-1.493835,3.292358-3.465698h5.718445l-2.599304,12.129944,3.465698,7.797852-9.444031,10.050537-8.577576-8.837524,3.379036-8.837575-3.379036-12.303233Z" fill="#fff"/>
  <circle cx="126.356673" cy="172.836463" r="4.418773" fill="#fff"/>
  <path d="M138.486664,196.143348l3.812256-10.916992-3.812256-10.223816h5.198547c-.118347,1.836792,1.286865,3.37677,2.945862,3.465698,1.774963.095154,3.410278-1.493835,3.292358-3.465698h5.718445l-3.898922,9.617317,2.19286,4.52243" fill="#fff"/>
  <circle cx="147.064256" cy="169.54404" r="4.418773" fill="#fff"/>
  <path d="M114.313341,196.143348l-3.812256-10.916992,3.812256-10.223816h-5.198547c.118347,1.836792-1.286865,3.37677-2.945862,3.465698-1.774963.095154-3.410278-1.493835-3.292358-3.465698h-5.718445s4.158848,10.570404,4.158848,10.570404l-2.452786,3.569343" fill="#fff"/>
  <circle cx="105.735749" cy="169.54404" r="4.418773" fill="#fff"/>
  <path d="M92.306152,247.799364s12.823084-6.931389,6.758118-20.794189c-3.626838-8.289927-15.829712-16.534546-18.10614-17.771851-1.919678-1.043396-5.543091-3.073914-8.280701-7.170776-.955994-1.430664-1.650391-3.219055-2.118591-5.815491.204407-2.36853.271973-5.014282.08667-7.884521-.390291-6.044825-1.780942-11.20847-3.312949-15.280267-.742666-1.973871-.886577-4.118862-.360298-6.161103,1.230834-4.776288,2.502171-9.589097,3.846526-14.428624.577637-2.079407,1.155212-4.158875,1.732849-6.238281.329224-.011475,1.960632-.034119,3.292419,1.213013,1.669922,1.563782,2.039448,4.062091,1.819477,7.62453-.205334,3.325445-.768234,8.823894-1.45415,12.213777-.379571,1.875886-.297511,3.815079.28388,5.63854.93883,2.944527,1.877661,5.889069,2.816491,8.833578.182922.507629.576477,1.543945,1.213013,2.772583,7.744995,14.949402,27.698242,12.509216,37.429565,27.205811.010209.015417.020472.030954.03079.046609,3.170333,4.810482,3.996513,10.819603,2.261009,16.313216-.721428,2.283628-1.823236,4.760669-3.504812,7.206948-8.164063,11.87677-22.714294,12.438354-24.433167,12.476501Z" fill="#fff"/>
</svg>